HIERARCHY
ROOT Hips
{
	OFFSET 0.000000 0.000000 0.000000
	CHANNELS 6 Xposition Yposition Zposition Xrotation Yrotation Zrotation
	JOINT LeftUpLeg_virtual
	{
		OFFSET 0.000000 0.000000 0.000000
		CHANNELS 3 Xrotation Yrotation Zrotation
		JOINT LeftUpLeg
		{
			OFFSET 10.205400 -3.823500 0.155100
			CHANNELS 3 Xrotation Yrotation Zrotation
			JOINT LeftLeg
			{
				OFFSET 0.708757 -12.982077 0.567790
				CHANNELS 3 Xrotation Yrotation Zrotation
				JOINT LeftFoot
				{
					OFFSET -0.708756 -10.717838 -2.184338
					CHANNELS 3 Xrotation Yrotation Zrotation
					JOINT LeftToeBase
					{
						OFFSET 0.108149 -7.191104 7.560241
						CHANNELS 3 Xrotation Yrotation Zrotation
						JOINT LeftToe_End
						{
							OFFSET 0.070230 0.081724 4.490308
							CHANNELS 3 Xrotation Yrotation Zrotation
							End Site
							{
								OFFSET 0 0 0
							}
						}
					}
				}
			}
		}
	}
	JOINT RightUpLeg_virtual
	{
		OFFSET 0.000000 0.000000 0.000000
		CHANNELS 3 Xrotation Yrotation Zrotation
		JOINT RightUpLeg
		{
			OFFSET -10.205400 -3.823500 0.005500
			CHANNELS 3 Xrotation Yrotation Zrotation
			JOINT RightLeg
			{
				OFFSET -0.708756 -12.982134 0.610632
				CHANNELS 3 Xrotation Yrotation Zrotation
				JOINT RightFoot
				{
					OFFSET 0.708754 -10.717769 -1.945823
					CHANNELS 3 Xrotation Yrotation Zrotation
					JOINT RightToeBase
					{
						OFFSET -0.108140 -7.191069 7.372968
						CHANNELS 3 Xrotation Yrotation Zrotation
						JOINT RightToe_End
						{
							OFFSET -0.070227 0.081735 4.479403
							CHANNELS 3 Xrotation Yrotation Zrotation
							End Site
							{
								OFFSET 0 0 0
							}
						}
					}
				}
			}
		}
	}
	JOINT Spine_virtual
	{
		OFFSET 0.000000 0.000000 0.000000
		CHANNELS 3 Xrotation Yrotation Zrotation
		JOINT Spine
		{
			OFFSET 0.000000 6.876099 0.125700
			CHANNELS 3 Xrotation Yrotation Zrotation
			JOINT Spine1
			{
				OFFSET 0.000000 5.730043 0.104720
				CHANNELS 3 Xrotation Yrotation Zrotation
				JOINT Spine1_split
				{
					OFFSET 0.000000 5.730043 0.104720
					CHANNELS 3 Xrotation Yrotation Zrotation
					JOINT Spine2
					{
						OFFSET 0.000000 5.730043 0.104720
						CHANNELS 3 Xrotation Yrotation Zrotation
						JOINT Neck_virtual
						{
							OFFSET 0.000000 0.000000 0.000000
							CHANNELS 3 Xrotation Yrotation Zrotation
							JOINT Neck
							{
								OFFSET 0.000000 10.314075 0.188496
								CHANNELS 3 Xrotation Yrotation Zrotation
								JOINT Head
								{
									OFFSET 0.000000 7.643700 -2.377400
									CHANNELS 3 Xrotation Yrotation Zrotation
									JOINT HeadTop_End
									{
										OFFSET 0.000000 43.788605 -13.619600
										CHANNELS 3 Xrotation Yrotation Zrotation
										End Site
										{
											OFFSET 0 0 0
										}
									}
								}
							}
						}
						JOINT LeftShoulder_virtual
						{
							OFFSET 0.000000 0.000000 0.000000
							CHANNELS 3 Xrotation Yrotation Zrotation
							JOINT LeftShoulder
							{
								OFFSET 2.196100 4.412489 0.087492
								CHANNELS 3 Xrotation Yrotation Zrotation
								JOINT LeftShoulder_split
								{
									OFFSET 2.196100 4.412489 0.087492
									CHANNELS 3 Xrotation Yrotation Zrotation
									JOINT LeftArm
									{
										OFFSET 8.771219 -2.981674 -0.026999
										CHANNELS 3 Xrotation Yrotation Zrotation
										JOINT LeftForeArm
										{
											OFFSET 8.512804 0.000000 -0.000000
											CHANNELS 3 Xrotation Yrotation Zrotation
											JOINT LeftHand
											{
												OFFSET 18.484802 0.000000 -0.000000
												CHANNELS 3 Xrotation Yrotation Zrotation
												End Site
												{
													OFFSET 0 0 0
												}
											}
										}
									}
								}
							}
						}
						JOINT RightShoulder_virtual
						{
							OFFSET 0.000000 0.000000 0.000000
							CHANNELS 3 Xrotation Yrotation Zrotation
							JOINT RightShoulder
							{
								OFFSET -2.196100 4.412496 0.070690
								CHANNELS 3 Xrotation Yrotation Zrotation
								JOINT RightShoulder_split
								{
									OFFSET -2.196100 4.412496 0.070690
									CHANNELS 3 Xrotation Yrotation Zrotation
									JOINT RightArm
									{
										OFFSET -8.771282 -2.981682 -0.094208
										CHANNELS 3 Xrotation Yrotation Zrotation
										JOINT RightForeArm
										{
											OFFSET -8.494598 0.000000 0.000000
											CHANNELS 3 Xrotation Yrotation Zrotation
											JOINT RightHand
											{
												OFFSET -18.483803 0.000000 0.000001
												CHANNELS 3 Xrotation Yrotation Zrotation
												End Site
												{
													OFFSET 0 0 0
												}
											}
										}
									}
								}
							}
						}
					}
				}
			}
		}
	}
}
MOTION
Frames: 5
Frame Time: 0.03333333
0.439077 34.426964 -0.348816 0.000000 0.000000 0.000000 3.361760 -30.925416 2.348569 -12.044336 16.182699 13.695232 18.135313 12.789683 -3.918949 -9.516329 -2.298271 -9.068816 2.599700 0.502544 -0.283392 0.000000 0.000000 0.000000 3.870706 -29.897053 2.294858 -3.638073 -1.491468 -8.429600 6.570257 11.211499 0.708989 -10.338565 -1.149402 5.399930 -1.883605 -1.213694 -0.663729 0.000000 0.000000 0.000000 3.204166 -29.339122 1.248640 7.467780 -0.194565 -1.152077 1.381208 -0.821179 2.356454 0.455250 0.197514 0.637990 0.000000 0.000000 0.000000 1.054830 -0.394739 2.514554 -4.585120 17.724974 -7.191162 -5.909304 15.488760 0.267243 0.000000 0.000000 0.000000 1.239211 -0.626221 2.616418 0.947134 -10.336667 0.261597 1.376775 -0.153710 0.346210 -59.795069 1.266931 -39.402525 9.516682 -60.212216 11.907232 0.000000 0.000000 0.000000 0.818030 -0.462279 2.671927 4.786602 6.066580 7.264908 -0.686513 -0.100891 -1.540015 0.098546 0.506686 63.440716 12.363030 23.392459 -3.851733 0.000000 0.000000 0.000000 
0.434927 34.432526 -0.321278 0.000000 0.000000 0.000000 3.470809 -30.883834 2.364874 -12.110443 16.134223 13.714155 18.097560 12.787852 -3.863013 -9.540057 -2.271245 -9.101207 2.560258 0.504880 -0.292648 0.000000 0.000000 0.000000 3.984120 -29.844676 2.301348 -3.668986 -1.419005 -8.406681 6.655658 11.274029 0.679764 -10.282653 -1.115110 5.455424 -1.874731 -1.235531 -0.667900 0.000000 0.000000 0.000000 3.325440 -29.272254 1.263834 7.436588 -0.189683 -1.171362 1.361024 -0.837728 2.362678 0.525006 0.161666 0.708043 0.000000 0.000000 0.000000 1.045107 -0.400063 2.534806 -4.538013 17.885057 -7.254522 -5.888298 15.527238 0.295994 0.000000 0.000000 0.000000 1.214484 -0.628635 2.632936 0.928549 -10.227693 0.141874 1.480115 -0.244133 0.410497 -59.727935 1.332459 -39.328181 9.674615 -60.239769 11.983151 0.000000 0.000000 0.000000 0.811194 -0.465321 2.685065 4.733453 6.119181 7.408599 -0.862166 -0.157197 -1.502780 0.175466 0.550054 63.410821 12.352057 23.166945 -3.841866 0.000000 0.000000 0.000000 
0.422879 34.431004 -0.305771 0.000000 0.000000 0.000000 3.656617 -30.781514 2.401093 -12.252335 15.977440 13.745289 18.088299 12.779268 -3.830886 -9.582707 -2.226486 -9.195482 2.524613 0.503235 -0.280341 0.000000 0.000000 0.000000 4.156740 -29.764540 2.327128 -3.760039 -1.361849 -8.367009 6.783402 11.327085 0.655628 -10.318842 -1.096897 5.474774 -1.803675 -1.251736 -0.663853 0.000000 0.000000 0.000000 3.545837 -29.200876 1.313413 7.411265 -0.172137 -1.191290 1.327730 -0.830098 2.365567 0.559329 0.092695 0.741143 0.000000 0.000000 0.000000 1.035896 -0.378576 2.544019 -4.435729 18.214091 -7.363930 -5.947989 15.735634 0.407645 0.000000 0.000000 0.000000 1.192936 -0.605119 2.638477 0.904001 -10.038191 0.019978 1.567073 -0.260691 0.496665 -59.703442 1.389275 -39.266788 9.754419 -60.368367 11.982205 0.000000 0.000000 0.000000 0.797658 -0.445691 2.686900 4.690677 6.191289 7.580278 -0.958888 -0.221858 -1.538611 0.263337 0.573906 63.382100 12.313111 22.946256 -3.845915 0.000000 0.000000 0.000000 
0.401634 34.420631 -0.298918 0.000000 0.000000 0.000000 3.894071 -30.589733 2.451599 -12.469718 15.740086 13.785726 18.113469 12.775410 -3.831515 -9.646644 -2.167055 -9.314005 2.521105 0.497490 -0.253678 0.000000 0.000000 0.000000 4.370514 -29.647085 2.371699 -3.912862 -1.328525 -8.324620 6.922878 11.374116 0.639340 -10.424914 -1.091855 5.482053 -1.697426 -1.256501 -0.658471 0.000000 0.000000 0.000000 3.832596 -29.112011 1.394102 7.387633 -0.145291 -1.205313 1.281714 -0.798757 2.363487 0.507039 0.007719 0.725318 0.000000 0.000000 0.000000 1.024897 -0.336133 2.545494 -4.266671 18.719491 -7.555009 -6.103764 16.128194 0.568557 0.000000 0.000000 0.000000 1.176314 -0.561744 2.633769 0.881113 -9.794604 -0.080320 1.626332 -0.159409 0.611520 -59.742667 1.435390 -39.251519 9.735735 -60.511528 11.889531 0.000000 0.000000 0.000000 0.779110 -0.407474 2.679220 4.657059 6.290846 7.745204 -0.960995 -0.254865 -1.647325 0.348283 0.590749 63.379115 12.253869 22.720384 -3.860259 0.000000 0.000000 0.000000 
0.372182 34.401917 -0.298622 0.000000 0.000000 0.000000 4.158523 -30.300304 2.513566 -12.754478 15.439871 13.831258 18.168921 12.788082 -3.868475 -9.726754 -2.094505 -9.425977 2.551314 0.490048 -0.214997 0.000000 0.000000 0.000000 4.613336 -29.455163 2.433791 -4.098593 -1.324342 -8.289084 7.058729 11.418164 0.630335 -10.583993 -1.096680 5.490336 -1.591364 -1.250380 -0.650599 0.000000 0.000000 0.000000 4.161421 -28.965364 1.497881 7.355690 -0.114072 -1.212740 1.231628 -0.749621 2.355331 0.429562 -0.110819 0.724402 0.000000 0.000000 0.000000 1.011329 -0.279595 2.539854 -4.013454 19.410547 -7.873232 -6.363119 16.722192 0.746077 0.000000 0.000000 0.000000 1.165729 -0.504752 2.623127 0.867732 -9.526190 -0.145672 1.660582 0.020842 0.728591 -59.866895 1.506949 -39.309275 9.621680 -60.602841 11.706820 0.000000 0.000000 0.000000 0.762050 -0.356891 2.664966 4.630873 6.417210 7.867027 -0.904701 -0.232970 -1.790084 0.437742 0.588845 63.412651 12.181852 22.510082 -3.880761 0.000000 0.000000 0.000000 
